HIERARCHY
ROOT joint_Root
{
	OFFSET 0.0 0.0 0.0
	CHANNELS 6 Xposition Yposition Zposition Zrotation Xrotation Yrotation 
	JOINT Hips
	{
		OFFSET -17.1583 93.1646 452.98
		CHANNELS 6 Xposition Yposition Zposition Zrotation Xrotation Yrotation 
		JOINT Spine
		{
			OFFSET 15.7357 0.0 0.0
			CHANNELS 6 Xposition Yposition Zposition Zrotation Xrotation Yrotation 
			JOINT Chest
			{
				OFFSET 8.98455 -0.406207 0.0
				CHANNELS 6 Xposition Yposition Zposition Zrotation Xrotation Yrotation 
				JOINT Neck
				{
					OFFSET 16.3773 0.0 0.0
					CHANNELS 6 Xposition Yposition Zposition Zrotation Xrotation Yrotation 
					JOINT Head
					{
						OFFSET 6.45672 0.0 0.0
						CHANNELS 6 Xposition Yposition Zposition Zrotation Xrotation Yrotation 
						End Site
						{
							OFFSET 0.0 0.0 0.0
						}
					}
				}
				JOINT Shoulder_L
				{
					OFFSET 12.9942 -0.242716 4.98039
					CHANNELS 6 Xposition Yposition Zposition Zrotation Xrotation Yrotation 
					JOINT UpperArm_L
					{
						OFFSET 5.34809 0.0 0.0
						CHANNELS 6 Xposition Yposition Zposition Zrotation Xrotation Yrotation 
						JOINT LowerArm_L
						{
							OFFSET 24.3286 1.87007e-05 0.0
							CHANNELS 6 Xposition Yposition Zposition Zrotation Xrotation Yrotation 
							JOINT Hand_L
							{
								OFFSET 22.2916 0.0 0.0
								CHANNELS 6 Xposition Yposition Zposition Zrotation Xrotation Yrotation 
								End Site
								{
									OFFSET 0.0 0.0 0.0
								}
							}
						}
					}
				}
				JOINT Shoulder_R
				{
					OFFSET 12.9945 -0.242716 -4.98039
					CHANNELS 6 Xposition Yposition Zposition Zrotation Xrotation Yrotation 
					JOINT UpperArm_R
					{
						OFFSET -5.34813 0.0 0.0
						CHANNELS 6 Xposition Yposition Zposition Zrotation Xrotation Yrotation 
						JOINT LowerArm_R
						{
							OFFSET -24.3289 0.000322201 0.0
							CHANNELS 6 Xposition Yposition Zposition Zrotation Xrotation Yrotation 
							JOINT Hand_R
							{
								OFFSET -22.2915 -0.000108084 0.0
								CHANNELS 6 Xposition Yposition Zposition Zrotation Xrotation Yrotation 
								End Site
								{
									OFFSET 0.0 0.0 0.0
								}
							}
						}
					}
				}
			}
		}
		JOINT UpperLeg_L
		{
			OFFSET -2.19248 -6.46944 0.0
			CHANNELS 6 Xposition Yposition Zposition Zrotation Xrotation Yrotation 
			JOINT LowerLeg_L
			{
				OFFSET 39.0811 0.0 -1.23785e-05
				CHANNELS 6 Xposition Yposition Zposition Zrotation Xrotation Yrotation 
				JOINT Foot_L
				{
					OFFSET 40.9854 0.0 -1.26872e-05
					CHANNELS 6 Xposition Yposition Zposition Zrotation Xrotation Yrotation 
					JOINT Toes_L
					{
						OFFSET 11.7543 0.0 0.0
						CHANNELS 6 Xposition Yposition Zposition Zrotation Xrotation Yrotation 
						End Site
						{
							OFFSET 0.0 0.0 0.0
						}
					}
				}
			}
		}
		JOINT UpperLeg_R
		{
			OFFSET -2.19251 6.46944 0.0
			CHANNELS 6 Xposition Yposition Zposition Zrotation Xrotation Yrotation 
			JOINT LowerLeg_R
			{
				OFFSET -39.0811 -0.00228153 -0.0401928
				CHANNELS 6 Xposition Yposition Zposition Zrotation Xrotation Yrotation 
				JOINT Foot_R
				{
					OFFSET -40.9854 0.0 0.0
					CHANNELS 6 Xposition Yposition Zposition Zrotation Xrotation Yrotation 
					JOINT Toes_R
					{
						OFFSET -11.7543 0.0 0.0
						CHANNELS 6 Xposition Yposition Zposition Zrotation Xrotation Yrotation 
						End Site
						{
							OFFSET 0.0 0.0 0.0
						}
					}
				}
			}
		}
	}
}
MOTION
Frames:	8
Frame Time:	0.0333333
0.000000 0.000000 0.000000 0.000000 0.000000 -0.000000 186.910000 89.750000 -138.591000 83.403200 7.856530 1.525270 15.735700 0.000005 -0.000001 43.229400 85.622100 -39.414200 8.984550 -0.406207 -0.000000 -1.537200 -6.687630 7.545480 16.377300 -0.000001 -0.000001 3.448240 0.867351 -1.692360 6.456720 -0.000001 -0.000000 2.582250 2.441000 -5.574650 12.994200 -0.242716 4.980390 -92.936300 8.977600 -71.804500 5.348090 -0.000007 -0.000001 -74.278100 -0.011232 -0.808883 24.328600 0.000019 0.000005 19.430700 36.381600 -30.736800 22.291600 -0.000001 0.000005 60.242300 4.365400 18.771600 12.994500 -0.242716 -4.980390 88.706000 3.384990 -69.064900 -5.348130 -0.000001 -0.000004 -69.202000 2.097140 -0.135960 -24.328900 0.000322 -0.000009 -0.035594 -0.242226 -8.072930 -22.291500 -0.000108 -0.000004 42.458400 5.358680 -1.637650 -2.192480 -6.469440 -0.000000 -167.905000 -1.596320 -3.747990 39.081100 -0.000007 -0.000012 0.272761 -0.187478 55.497600 40.985400 -0.000006 -0.000013 -11.483900 9.747100 -22.376900 11.754300 -0.000000 0.000003 0.002093 0.050444 -14.530600 -2.192510 6.469440 -0.000001 -168.776000 -0.762356 158.263000 -39.081100 -0.002282 -0.040193 0.012453 -0.012332 36.620500 -40.985400 0.000008 0.000006 -1.722210 -6.672520 -71.641200 -11.754300 -0.000006 -0.000006 -0.010964 0.278374 -5.261750
0.000000 0.000000 0.000000 0.000000 0.000000 -0.000000 186.960000 89.881800 -134.850000 82.910500 8.340890 2.600620 15.735700 0.000005 -0.000001 51.652500 85.680000 -47.861900 8.984550 -0.406207 -0.000000 -0.791353 -5.642220 7.543840 16.377300 -0.000001 -0.000001 3.100440 0.096759 -1.268460 6.456720 -0.000001 -0.000000 2.248740 1.015750 -5.219720 12.994200 -0.242716 4.980390 -92.887600 8.742650 -71.641200 5.348090 -0.000007 -0.000001 -73.988900 -2.835110 0.919542 24.328600 0.000019 0.000005 14.432600 35.993800 -23.646900 22.291600 -0.000001 0.000005 58.952800 4.363390 18.802500 12.994500 -0.242716 -4.980390 88.696200 3.422010 -69.128400 -5.348130 -0.000001 -0.000004 -70.715800 4.696310 -2.600310 -24.328900 0.000322 -0.000009 -0.212793 -0.959617 -12.399100 -22.291500 -0.000108 -0.000004 43.011600 5.385640 -2.476440 -2.192480 -6.469440 -0.000000 -167.691000 -0.318028 -9.735680 39.081100 -0.000007 -0.000012 0.283608 -0.136990 64.217500 40.985400 -0.000006 -0.000013 -10.206900 8.467530 -28.133200 11.754300 -0.000000 0.000003 0.002009 0.047062 -14.667800 -2.192510 6.469440 -0.000001 -167.879000 0.144506 162.030000 -39.081100 -0.002282 -0.040193 0.012761 -0.012823 36.457400 -40.985400 0.000008 0.000006 -1.328220 -6.646030 -73.943800 -11.754300 -0.000006 -0.000006 -0.010643 0.276052 -5.356800
0.000000 0.000000 0.000000 0.000000 0.000000 -0.000000 187.229000 90.299900 -131.278000 83.461600 8.261650 3.490280 15.735700 0.000005 -0.000001 61.069500 85.702900 -57.695400 8.984550 -0.406207 -0.000000 -0.104590 -4.387910 6.742880 16.377300 -0.000001 -0.000001 3.154300 -0.476474 -0.746054 6.456720 -0.000001 -0.000000 1.850730 -0.161774 -4.682540 12.994200 -0.242716 4.980390 -92.824500 8.398400 -71.335400 5.348090 -0.000007 -0.000001 -72.415800 -7.334460 3.374340 24.328600 0.000019 0.000005 11.399500 34.065900 -19.796000 22.291600 -0.000001 0.000005 58.249200 4.338490 19.194400 12.994500 -0.242716 -4.980390 88.675500 3.470480 -69.095600 -5.348130 -0.000001 -0.000004 -71.632000 6.910890 -4.960770 -24.328900 0.000322 -0.000009 -0.604814 -1.883360 -17.766200 -22.291500 -0.000108 -0.000004 43.388300 5.388390 -2.563480 -2.192480 -6.469440 -0.000000 -169.077000 0.308776 -14.823900 39.081100 -0.000007 -0.000012 0.196188 -0.074408 69.228400 40.985400 -0.000006 -0.000013 -6.706470 8.298040 -35.249100 11.754300 -0.000000 0.000003 0.002091 0.050360 -14.534000 -2.192510 6.469440 -0.000001 -168.206000 0.012597 166.501000 -39.081100 -0.002282 -0.040193 0.010962 -0.011045 34.776900 -40.985400 0.000008 0.000006 -1.243250 -6.997250 -75.359700 -11.754300 -0.000006 -0.000006 -0.009814 0.269912 -5.607960
0.000000 0.000000 0.000000 0.000000 0.000000 -0.000000 187.677000 90.960100 -127.851000 84.689100 7.669470 3.802790 15.735700 0.000005 -0.000001 68.888000 85.757600 -66.165500 8.984550 -0.406207 -0.000000 0.233153 -3.234160 5.449060 16.377300 -0.000001 -0.000001 3.514050 -0.727024 -0.385470 6.456720 -0.000001 -0.000000 1.666010 -0.971449 -3.955830 12.994200 -0.242716 4.980390 -92.810300 8.062730 -70.710400 5.348090 -0.000007 -0.000001 -69.374600 -11.198800 6.452980 24.328600 0.000019 0.000005 10.687500 33.940600 -18.676100 22.291600 -0.000001 0.000005 58.122600 4.313170 19.588000 12.994500 -0.242716 -4.980390 88.701200 3.408550 -69.127200 -5.348130 -0.000001 -0.000004 -72.314100 8.660870 -7.061620 -24.328900 0.000322 -0.000009 -0.505576 -1.153030 -23.721000 -22.291500 -0.000108 -0.000004 43.943200 5.391580 -2.668270 -2.192480 -6.469440 -0.000000 -171.269000 0.837662 -19.140300 39.081100 -0.000007 -0.000012 0.158427 -0.057217 70.140500 40.985400 -0.000006 -0.000013 -6.130620 5.405650 -41.144100 11.754300 -0.000000 0.000003 0.002292 0.060315 -14.130400 -2.192510 6.469440 -0.000001 -169.415000 -0.170032 171.198000 -39.081100 -0.002282 -0.040193 0.006789 -0.005677 31.585100 -40.985400 0.000008 0.000006 -1.318830 -6.651030 -75.868500 -11.754300 -0.000006 -0.000006 -0.009458 0.267206 -5.718610
0.000000 0.000000 0.000000 0.000000 0.000000 -0.000000 188.278000 91.731900 -124.597000 86.324000 7.255990 3.342100 15.735700 0.000005 -0.000001 74.403400 85.978000 -72.442000 8.984550 -0.406207 -0.000000 0.024498 -2.294610 3.921190 16.377300 -0.000001 -0.000001 3.965690 -0.875418 -0.194417 6.456720 -0.000001 -0.000000 1.637800 -1.710790 -3.268570 12.994200 -0.242716 4.980390 -92.717100 7.482230 -69.975700 5.348090 -0.000007 -0.000001 -65.820400 -14.184100 9.456400 24.328600 0.000019 0.000005 10.690200 34.274800 -18.531400 22.291600 -0.000001 0.000005 58.294900 4.307000 19.683400 12.994500 -0.242716 -4.980390 88.825200 3.103480 -69.254000 -5.348130 -0.000001 -0.000004 -72.947000 9.570470 -8.279950 -24.328900 0.000322 -0.000009 0.584400 0.995481 -30.363700 -22.291500 -0.000108 -0.000004 44.172900 5.394330 -2.754230 -2.192480 -6.469440 -0.000000 -174.007000 1.803760 -22.873300 39.081100 -0.000007 -0.000012 0.096907 -0.040286 67.423400 40.985400 -0.000006 -0.000013 -5.215550 2.624480 -47.860700 11.754300 -0.000000 0.000003 0.002424 0.070478 -13.718300 -2.192510 6.469440 -0.000001 -171.381000 0.303747 175.497000 -39.081100 -0.002282 -0.040193 0.001874 0.002772 27.350700 -40.985400 0.000008 0.000006 -1.427010 -5.454860 -75.379000 -11.754300 -0.000006 -0.000006 -0.008161 0.257007 -6.135400
0.000000 0.000000 0.000000 0.000000 0.000000 -0.000000 188.900000 92.441200 -121.502000 87.771300 6.577110 2.510180 15.735700 0.000005 -0.000001 81.225800 86.237400 -79.906400 8.984550 -0.406207 -0.000000 -0.313163 -1.240630 2.634020 16.377300 -0.000001 -0.000001 4.158240 -0.936702 -0.149340 6.456720 -0.000001 -0.000000 1.619770 -2.433030 -2.883740 12.994200 -0.242716 4.980390 -92.621600 6.965450 -69.315300 5.348090 -0.000007 -0.000001 -62.021200 -17.246700 12.091800 24.328600 0.000019 0.000005 10.772200 33.397800 -19.067500 22.291600 -0.000001 0.000005 58.522000 4.265190 20.326000 12.994500 -0.242716 -4.980390 88.964900 2.779600 -69.565500 -5.348130 -0.000001 -0.000004 -73.215800 9.963750 -9.113910 -24.328900 0.000322 -0.000009 2.064820 2.740080 -37.009200 -22.291500 -0.000108 -0.000004 44.178500 5.396460 -2.823700 -2.192480 -6.469440 -0.000000 -176.218000 2.972190 -25.452000 39.081100 -0.000007 -0.000012 0.053802 -0.029829 60.990900 40.985400 -0.000006 -0.000013 -4.855720 0.194295 -53.560300 11.754300 -0.000000 0.000003 0.002456 0.074395 -13.559500 -2.192510 6.469440 -0.000001 -173.374000 1.362140 179.361000 -39.081100 -0.002282 -0.040193 -0.001073 0.010473 22.738000 -40.985400 0.000008 0.000006 -1.375000 -3.548820 -74.183400 -11.754300 -0.000006 -0.000006 -0.007320 0.250056 -6.419220
0.000000 0.000000 0.000000 0.000000 0.000000 -0.000000 189.437000 92.928500 -118.494000 88.576500 6.010130 1.701350 15.735700 0.000005 -0.000001 87.957500 86.392200 -86.997300 8.984550 -0.406207 -0.000000 -0.551512 -0.326799 1.917800 16.377300 -0.000001 -0.000001 4.142980 -0.980548 -0.289710 6.456720 -0.000001 -0.000000 1.350080 -3.042560 -2.820340 12.994200 -0.242716 4.980390 -92.594800 6.717350 -68.822300 5.348090 -0.000007 -0.000001 -58.051900 -20.453400 14.322000 24.328600 0.000019 0.000005 11.058300 32.462000 -20.007600 22.291600 -0.000001 0.000005 58.813600 4.225360 20.930200 12.994500 -0.242716 -4.980390 89.017300 2.678560 -69.844000 -5.348130 -0.000001 -0.000004 -72.920900 10.044800 -9.930690 -24.328900 0.000322 -0.000009 3.406830 3.656600 -43.030500 -22.291500 -0.000108 -0.000004 44.770500 5.387140 -2.524410 -2.192480 -6.469440 -0.000000 -177.181000 4.255610 -26.689800 39.081100 -0.000007 -0.000012 0.034925 -0.028126 51.151000 40.985400 -0.000006 -0.000013 -5.108600 -1.368580 -56.070500 11.754300 -0.000000 0.000003 0.002482 0.087764 -13.017600 -2.192510 6.469440 -0.000001 -175.000000 3.693080 -177.310000 -39.081100 -0.002282 -0.040193 -0.003682 0.020663 18.728900 -40.985400 0.000008 0.000006 -1.581910 -0.544537 -72.400700 -11.754300 -0.000006 -0.000006 -0.004976 0.228903 -7.282000
0.000000 0.000000 0.000000 0.000000 0.000000 -0.000000 189.861000 93.091400 -115.487000 88.666200 5.702540 1.015150 15.735700 0.000005 -0.000001 93.585300 86.472700 -92.664600 8.984550 -0.406207 -0.000000 -0.727616 0.372829 1.842990 16.377300 -0.000001 -0.000001 4.058650 -1.051670 -0.561313 6.456720 -0.000001 -0.000000 0.907207 -3.509310 -3.038190 12.994200 -0.242716 4.980390 -92.649700 6.733290 -68.460200 5.348090 -0.000007 -0.000001 -54.346100 -22.987800 16.297300 24.328600 0.000019 0.000005 11.708600 31.667000 -21.542900 22.291600 -0.000001 0.000005 59.260000 4.207650 21.197000 12.994500 -0.242716 -4.980390 89.050900 2.612640 -70.026900 -5.348130 -0.000001 -0.000004 -72.570400 9.334550 -10.494300 -24.328900 0.000322 -0.000009 4.785400 4.272040 -48.336300 -22.291500 -0.000108 -0.000004 44.977900 5.379600 -2.285880 -2.192480 -6.469440 -0.000000 -176.959000 5.195870 -26.635700 39.081100 -0.000007 -0.000012 0.028664 -0.035369 39.020600 40.985400 -0.000006 -0.000013 -5.671790 -1.819700 -57.006300 11.754300 -0.000000 0.000003 0.002471 0.090541 -12.905000 -2.192510 6.469440 -0.000001 -175.981000 6.608560 -174.537000 -39.081100 -0.002282 -0.040193 -0.005382 0.030743 15.819600 -40.985400 0.000008 0.000006 -1.123060 2.436090 -70.936900 -11.754300 -0.000006 -0.000006 -0.002874 0.206835 -8.180680
